<svg width="44" height="44" viewBox="0 0 44 44" fill="none" xmlns="http://www.w3.org/2000/svg">
<path d="M41.5556 0H2.44444C1.79614 0 1.17438 0.257539 0.715961 0.715961C0.257539 1.17438 0 1.79614 0 2.44444L0 41.5556C0 42.2039 0.257539 42.8256 0.715961 43.284C1.17438 43.7425 1.79614 44 2.44444 44H23.5033V26.9867H17.7894V20.3256H23.5033V15.4367C23.5033 9.75333 26.9744 6.655 32.0589 6.655C33.7694 6.65 35.479 6.73772 37.18 6.91778V12.8333H33.6722C30.9161 12.8333 30.3783 14.1472 30.3783 16.0722V20.3133H36.9722L36.1167 26.9744H30.3783V44H41.5556C42.2039 44 42.8256 43.7425 43.284 43.284C43.7425 42.8256 44 42.2039 44 41.5556V2.44444C44 1.79614 43.7425 1.17438 43.284 0.715961C42.8256 0.257539 42.2039 0 41.5556 0V0Z" fill="#4267B2"/>
</svg>
