<svg xmlns="http://www.w3.org/2000/svg" xmlns:xlink="http://www.w3.org/1999/xlink" viewBox="0 0 185 167">
	<path class="color-fill" d="M27.445 127.541l.979.109.021-.182a2.988 2.988 0 0 0-.203-1.523c-.06-.118-.12-.237-.189-.343a2.019 2.019 0 0 0-.641-.631 1.75 1.75 0 0 0-.787-.259 1.493 1.493 0 0 0-.826.23c-.216.143-.38.32-.491.541-.105.22-.156.465-.147.732.028.395.31 1.108.346 1.189.077.188.176.459.185.7.006.197-.055.334-.19.424-.253.164-.502.082-.661-.027a1.122 1.122 0 0 1-.356-.357 1.625 1.625 0 0 1-.151-.297l-.003-.007c-.141-.348-.18-.771-.118-1.217l.027-.187-.972-.14-.027.186a3.363 3.363 0 0 0 .189 1.719c.07.175.148.335.24.475.198.302.405.512.657.653.29.175.568.264.833.277a1.48 1.48 0 0 0 .879-.258c.222-.146.395-.338.502-.566.106-.229.156-.489.13-.771-.016-.335-.167-.728-.287-1.019-.021-.058-.04-.115-.058-.156-.125-.324-.179-.544-.176-.713.004-.169.058-.275.194-.365.147-.095.369-.083.561.038.122.08.237.189.331.331.146.222.297.615.232 1.23l-.023.184zM31.306 130.337l-.759.607.807 1.006-3.334 2.675.618.771 3.334-2.673.806 1.005.759-.609zM33.964 137.562a2.739 2.739 0 0 0-.021 3.87 2.742 2.742 0 0 0 3.874.036 2.746 2.746 0 0 0 .026-3.884 2.746 2.746 0 0 0-3.879-.022m3.155 3.2a1.757 1.757 0 0 1-2.483-.013 1.758 1.758 0 0 1 .021-2.484 1.76 1.76 0 0 1 2.488.007 1.76 1.76 0 0 1-.026 2.49M42.596 142.261l-3.303 4.072.743.601 1.613-1.989.327.265-.168 3.165.905.733.177-3.317a1.36 1.36 0 0 0 1.36-.463c.223-.275.322-.62.285-.982a1.321 1.321 0 0 0-.482-.902l-1.457-1.183zm.91 2.464a.382.382 0 0 1-.538.056l-.715-.579.482-.595.715.581a.382.382 0 0 1 .056.537M49.355 149.374l-.077-2.04-1.01-.668.12 3.262-1.43 2.168.831.546 1.431-2.166 3.043-1.173-1.003-.662zM62.495 158.663l-.27-2.339-.832-.353-1.879 1.425.516-3.884-.948-.404-.705 5.395.835.354 2.13-1.62.308 2.659.833.354 3.401-4.251-.943-.399zM71.749 157.638a2.749 2.749 0 0 0-3.386 1.906 2.74 2.74 0 0 0 1.899 3.374 2.742 2.742 0 1 0 1.487-5.28m.944 3.121a1.76 1.76 0 0 1-2.167 1.222 1.76 1.76 0 0 1-1.211-2.171 1.762 1.762 0 0 1 2.168-1.228 1.762 1.762 0 0 1 1.21 2.177M81.121 161.197c.058-.35-.026-.7-.239-.996a1.318 1.318 0 0 0-.864-.545l-1.854-.305-.851 5.173.945.154.416-2.527.414.068 1.423 2.832 1.148.188-1.489-2.97c.486-.143.867-.557.951-1.072m-1.384.159l-.908-.149.123-.755.909.148a.383.383 0 1 1-.124.756M85.435 161.35l1.286.088-.293 4.263.985.066.294-4.263 1.285.09.068-.972-3.559-.244zM96.105 160.626l.051 1.737-2.131.063-.048-1.74-.989.028.153 5.245.986-.029-.074-2.54 2.131-.062.07 2.541.988-.028-.15-5.243zM110.572 162.372c-.244.51-.697.864-1.248.978a1.777 1.777 0 0 1-2.088-1.387 1.77 1.77 0 0 1 1.381-2.081 1.734 1.734 0 0 1 1.527.409l.139.125.656-.73-.145-.121a2.754 2.754 0 0 0-2.373-.645 2.757 2.757 0 0 0-2.146 3.239c.076.368.219.701.432 1.001.195.302.451.55.752.744.295.195.625.33.973.404.357.068.727.068 1.088-.006a2.68 2.68 0 0 0 1.143-.527 2.65 2.65 0 0 0 .783-.987l.088-.167-.881-.408-.081.159zM118.447 156.328l-.939.305 1.008 3.121a1.07 1.07 0 0 1-.68 1.35 1.075 1.075 0 0 1-1.34-.698l-1.008-3.121-.932.302 1.006 3.119a2.043 2.043 0 0 0 2.57 1.317c.52-.167.943-.531 1.197-1.015a2.028 2.028 0 0 0 .125-1.558l-1.007-3.122zM125.029 158.314l-1.732-3.918-.904.4 2.121 4.804 3.353-1.484-.39-.883zM132.014 151.111l-.469-.85-3.121 1.719.469.853 1.128-.624 2.063 3.741.865-.474-2.064-3.743z"></path>
	<path class="color-fill" transform="rotate(-123.862 137.13 149.827)" d="M134.508 149.335h5.244v.986h-5.244z"></path>
	<path class="color-fill" d="M142.504 142.509l1.215 3.736-3.405-1.955-.824.67 4.887 2.792.691-.561-1.744-5.348zM146.666 138.708l2.256 5.153.75-.741-.607-1.391 1.238-1.223 1.377.627.756-.746-5.135-2.307-.635.628zm2.678 1.376l-.691.683-.551-1.248 1.242.565zM153.85 132.26l-.748-.626-2.291 2.734.744.626.83-.989 3.277 2.747.635-.756-3.277-2.748z"></path>
	<path class="color-fill" transform="rotate(-144.955 158.167 129.218)" d="M155.542 128.726h5.243v.986h-5.243z"></path>
	<path class="color-fill" d="M160.43 120.626l2.986 1.696-4.133.321-.472.835 4.562 2.592.488-.861-2.992-1.7 4.143-.322.468-.829-4.562-2.592zM168.545 113.156l-2.225-.949-.943 2.209.9.385.564-1.322 1.004.429c.189.456.195.949.002 1.403a1.77 1.77 0 0 1-2.326.92 1.757 1.757 0 0 1-.926-2.31c.188-.44.514-.773.938-.938l.156-.069-.303-.922-.184.072c-.334.129-.637.33-.895.579a2.743 2.743 0 0 0 .828 4.489 2.746 2.746 0 0 0 3.605-1.438 2.785 2.785 0 0 0-.172-2.486l-.023-.052zM21.276 55.589a2.037 2.037 0 0 0-1.161-2.65l-3.058-1.188-.359.921 3.059 1.188c.55.213.832.83.618 1.379a1.072 1.072 0 0 1-1.387.6L15.93 54.65l-.354.915 3.057 1.188a2.04 2.04 0 0 0 2.643-1.164M24.705 47.839l-3.025-1.641 4.136-.407.453-.836-4.613-2.501-.471.868 3.019 1.637-4.125.405-.458.841 4.613 2.502zM31.207 37.46l-.794-.562-1.39 1.961-1.274-.904 1.243-1.755-.8-.567-1.244 1.757-.631-.448 1.427-2.015-.782-.553-1.998 2.821 4.283 3.032zM39.199 28.342l-1.75-1.843 1.543-1.47 1.751 1.842.715-.682-3.612-3.802-.717.682 1.199 1.261-1.544 1.47-1.198-1.261-.715.681 3.612 3.803z"></path>
	<path class="color-fill" transform="rotate(52.427 44.53 20.248)" d="M41.906 19.756h5.253v.989h-5.253z"></path>
	<path class="color-fill" d="M52.884 14.982a1.475 1.475 0 0 0-.769-.148c-.333.007-.731.148-1.024.262-.059.019-.117.037-.158.054-.327.116-.547.165-.716.158-.17-.007-.274-.066-.36-.203-.093-.15-.073-.371.052-.56.081-.12.193-.233.338-.322.226-.141.622-.282 1.236-.202l.181.025.133-.975-.182-.027a3 3 0 0 0-1.527.166c-.12.058-.241.114-.347.181-.27.167-.485.378-.646.624-.16.247-.256.513-.28.78-.008.309.063.593.211.832.136.219.31.388.529.505.214.109.458.166.727.165.395-.019 1.117-.284 1.199-.317.188-.073.461-.165.703-.167.199-.001.334.063.419.201.159.257.069.504-.043.66-.083.13-.208.25-.365.348a1.858 1.858 0 0 1-.302.143l-.006.004c-.352.131-.776.16-1.219.087l-.186-.033-.164.967.186.035a3.382 3.382 0 0 0 1.722-.148c.175-.065.336-.139.482-.229.307-.19.521-.391.67-.639.178-.285.276-.562.295-.825a1.478 1.478 0 0 0-.236-.885 1.352 1.352 0 0 0-.553-.517M57.807 10.136l1.833 3.863.893-.424L58.7 9.712l1.165-.554-.418-.879-3.224 1.531.417.879zM68.521 10.464a2.74 2.74 0 1 0-1.747-5.197 2.747 2.747 0 0 0-1.723 3.479 2.74 2.74 0 0 0 3.47 1.718m-1.436-4.268a1.763 1.763 0 0 1 2.227 1.118c.309.922-.187 1.92-1.102 2.228s-1.913-.188-2.224-1.111a1.761 1.761 0 0 1 1.099-2.235"></path>
	<path class="color-fill" transform="rotate(77.766 76.138 5.573)" d="M73.518 5.08h5.242v.987h-5.242z"></path>
	<path class="color-fill" d="M83.677 6.951l-.274-2.548.417-.044 2.126 2.348 1.158-.124-2.227-2.465c.428-.268.686-.77.63-1.289a1.318 1.318 0 0 0-.496-.896 1.321 1.321 0 0 0-.979-.294l-1.868.201.561 5.213.952-.102zm.457-4.359a.386.386 0 0 1 .422.339.385.385 0 0 1-.34.422l-.916.099-.082-.762.916-.098zM95.127 5.452l-2.4-.041.025-1.562 2.152.037.016-.98-2.15-.037.013-.773 2.467.042.018-.957-3.456-.059-.09 5.244 3.387.057zM107.654 6.321l1.707.338.25 1.491 1.041.208-.967-5.539-.873-.173-3 4.751 1.033.205.809-1.281zm1.291-2.034l.229 1.345-.955-.19.726-1.155zM109.518 2.306l-.289-1.11-.776-.154.582 1.167zM122.453 12.034c.258.261.561.472.9.615a2.713 2.713 0 0 0 2.445-.155l.166-.09-.494-.835-.156.086a1.759 1.759 0 0 1-1.58.099 1.778 1.778 0 0 1-.936-2.327 1.77 1.77 0 0 1 2.318-.932c.523.222.896.661 1.025 1.205l.045.179.955-.228-.051-.182a2.727 2.727 0 0 0-.574-1.125 2.726 2.726 0 0 0-1.018-.752 2.754 2.754 0 0 0-3.604 1.451 2.685 2.685 0 0 0-.215 1.07 2.55 2.55 0 0 0 .201 1.04c.136.327.329.626.573.881M131.76 16.869c.473.274 1.025.35 1.553.214a2.017 2.017 0 0 0 1.244-.947l1.652-2.832-.854-.498-1.65 2.833a1.07 1.07 0 0 1-1.459.395 1.073 1.073 0 0 1-.375-1.464l1.65-2.833-.846-.494-1.652 2.833a2.044 2.044 0 0 0 .737 2.793M141.502 22.227l-2.139-1.607 2.573-3.422-.79-.593-3.152 4.193 2.928 2.2zM149.566 24.897l.661-.714-2.618-2.421-.662.714.948.875-2.903 3.138.725.671 2.902-3.138z"></path>
	<path class="color-fill" transform="rotate(48.348 152.714 30.587)" d="M152.222 27.965h.987v5.246h-.987z"></path>
	<path class="color-fill" d="M161.576 37.725l-.611-.859-3.803.97 2.166-3.269-.615-.864-3.1 4.693.518.726zM161.502 47.885l.852-.471-1.163-2.103 1.368-.758 1.041 1.884.859-.474-1.043-1.885.678-.374 1.195 2.161.838-.464-1.674-3.025-4.594 2.541zM164.117 53.478l2.377-.969.158.389-1.674 2.697.439 1.078 1.756-2.826c.379.34.932.449 1.418.252.326-.134.582-.389.725-.726.141-.336.145-.695.012-1.024l-.711-1.741-4.863 1.981.363.889zm3.975-1.621l.348.854a.386.386 0 0 1-.209.5.386.386 0 0 1-.502-.211l-.346-.854.709-.289zM110.035 48.353l-33.284-5.904.47 8.34 32.348.653.466-3.089zm-1.203 2.216l-30.8-.624-.363-6.463 31.392 5.569-.229 1.518z"></path>
	<path class="color-fill" d="M78.404 56.572l-.173-3.086 30.085.457-.432 2.826c-.047.299.033.592.223.825.197.242.5.39.828.406l1.725.085.061.002c.613 0 1.166-.457 1.246-1.042l.414-3.042 2.859.043c.605.011 1.223-.016 1.564-.443.223-.276.273-.647.148-1.163l-.074-.236c-.242-.87-1.236-1.496-2.42-1.521l-1.619-.033.115-.832 2.094.417c.938.166 2.107.375 2.871-.645l.311-.387c.357-.508.309-.913.207-1.164-.131-.314-.49-.726-1.477-.903l-3.541-.707 1.033-7.627a.882.882 0 0 0-.215-.71 1.083 1.083 0 0 0-.82-.349h-.008l-1.564.008c-.592.003-1.113.417-1.193.94l-1.074 6.981-32.108-5.716-.174-3.086a.915.915 0 0 0-.373-.698 1.088 1.088 0 0 0-.915-.166l-1.591.384c-.573.138-1.001.674-.975 1.219l.073 1.565-4.452-.888c-.203-.036-.395-.08-.574-.121-.594-.136-1.109-.254-1.506.021-.224.153-.358.4-.407.757l-.076.91c-.147 1.446 1.033 1.651 1.982 1.817l5.194 1.03.329 7.165-4.933-.1c-.204-.004-.404-.019-.591-.031-.635-.046-1.182-.083-1.479.297-.173.223-.201.525-.073.917l.363.965c.509 1.42 1.582 1.434 2.619 1.448l4.256.063.14 3.032c.028.611.542 1.118 1.168 1.156l1.729.103c.328.018.661-.098.888-.324.219-.218.33-.508.312-.819m-.917.211a.293.293 0 0 1-.231.076l-1.729-.104c-.185-.011-.355-.169-.363-.339l-.176-3.836-5.065-.077c-1.051-.015-1.528-.055-1.827-.886l-.358-.953c-.013-.038-.019-.068-.024-.092.154-.024.467 0 .707.016.2.014.413.029.634.035l5.849.117-.401-8.751-5.71-1.137-.164-.029c-1.153-.2-1.332-.325-1.274-.892l.075-.893c.016-.112.042-.146.041-.146.098-.058.537.042.828.109.193.043.398.09.606.127l5.517 1.101-.122-2.662c-.006-.122.134-.3.32-.345l1.59-.383c.098-.026.168-.006.23.079l.212 3.763 33.639 5.991 1.209-7.851c.012-.084.164-.21.35-.211l1.568-.009c.092 0 .152.031.184.087l-1.141 8.426 4.344.867c.541.097.789.268.838.385.043.103-.066.275-.098.322l-.303.376c-.424.566-1.057.5-2.033.328l-2.977-.594-.377 2.688 2.586.053c.781.017 1.473.401 1.615.908l.07.221c.055.232.041.36.008.397-.07.09-.367.13-.881.124l-3.621-.055-.518 3.795c-.023.166-.186.307-.414.298l-1.725-.085a.275.275 0 0 1-.203-.091.18.18 0 0 1-.041-.153l.582-3.799-31.993-.484.226 4.004a.2.2 0 0 1-.059.164M26.054 91.36l.441-.551-2.921-2.151-.414.525a6.58 6.58 0 0 1-5.292 2.645c-3.638 0-6.614-2.975-6.614-6.642 0-3.638 2.977-6.586 6.614-6.586 2.123 0 4.052.964 5.292 2.645l.414.552 2.949-2.178-.441-.551a10.094 10.094 0 0 0-3.61-3.032 10.21 10.21 0 0 0-4.603-1.102c-5.65 0-10.28 4.603-10.28 10.252 0 1.406.275 2.729.827 3.997a9.462 9.462 0 0 0 2.204 3.279c.938.938 2.04 1.681 3.252 2.204 1.268.525 2.619.801 3.997.801 1.6 0 3.169-.358 4.575-1.076a10.07 10.07 0 0 0 3.61-3.031M42.872 74.935c-5.649 0-10.252 4.603-10.252 10.278 0 5.65 4.603 10.226 10.252 10.226 5.678 0 10.28-4.575 10.28-10.226 0-5.676-4.603-10.278-10.28-10.278m0 16.866c-3.61 0-6.559-2.949-6.559-6.588 0-3.665 2.949-6.613 6.559-6.613s6.56 2.949 6.56 6.613c-.001 3.639-2.95 6.588-6.56 6.588M60.295 75.54v19.623h13.698v-3.61H63.989V75.54zM121.727 94.392a10.078 10.078 0 0 0 3.609-3.031l.441-.551-2.922-2.151-.412.525a6.584 6.584 0 0 1-5.291 2.645c-3.639 0-6.617-2.975-6.617-6.642 0-3.638 2.979-6.587 6.617-6.587 2.121 0 4.051.965 5.291 2.646l.412.552 2.949-2.178-.439-.551a10.123 10.123 0 0 0-3.611-3.032 10.212 10.212 0 0 0-4.602-1.102c-5.652 0-10.281 4.603-10.281 10.252a9.89 9.89 0 0 0 .826 3.997 9.492 9.492 0 0 0 2.205 3.279 10.427 10.427 0 0 0 3.252 2.204c1.268.525 2.619.801 3.998.801 1.598 0 3.168-.359 4.575-1.076M139.949 95.163V79.178h4.822V75.54h-13.337v3.638h4.822v15.985zM151.859 75.54h3.693v19.624h-3.693zM177.412 79.151V75.54h-12.898v19.623h3.664v-9.481h5.099v-3.637h-5.099v-2.894zM81.165 75.543v10.486h7.466v-2.36h-5.076v-8.126zM99.91 77.888v-2.346h-7.075v10.486h6.972v-2.375H95.24v-2.25h4.086v-2.092H95.24v-1.423zM81.165 90.008h18.657v2.363H81.165zM61.341 120.222l-1.326-2.327-1.327 2.327h-.904l-1.466-5.245h1.03l1.047 3.78 1.17-2.048h.907l1.162 2.048 1.054-3.78h1.023l-1.465 5.245zM63.804 119.721a.577.577 0 0 1 .582-.573.575.575 0 1 1 0 1.147.576.576 0 0 1-.582-.574M73.744 120.222v-5.245h1.944c.354 0 .7.148.942.4.25.242.398.587.398.942 0 .212-.052.412-.132.588.139.081.272.177.383.296a1.752 1.752 0 0 1 0 2.495 1.742 1.742 0 0 1-.568.383 1.605 1.605 0 0 1-.669.141h-2.298zm1.937-3.535a.37.37 0 0 0 .368-.367.389.389 0 0 0-.368-.378h-.958v.745h.958zm.354 2.57a.818.818 0 0 0 .787-.81.802.802 0 0 0-.78-.795h-1.319v1.604h1.312zM80.501 117.562a2.745 2.745 0 0 1 2.739-2.746 2.746 2.746 0 0 1 2.747 2.746 2.738 2.738 0 0 1-2.747 2.733 2.737 2.737 0 0 1-2.739-2.733m.987 0c0 .974.788 1.763 1.752 1.763s1.754-.789 1.754-1.763c0-.978-.789-1.766-1.754-1.766s-1.752.788-1.752 1.766M89.004 120.222v-5.245h.986v4.28h2.674v.965zM96.092 120.222v-4.272h-1.287v-.973h3.562v.973H97.08v4.272zM100.877 117.562a2.744 2.744 0 0 1 2.738-2.746 2.745 2.745 0 0 1 2.746 2.746 2.738 2.738 0 0 1-2.746 2.733 2.736 2.736 0 0 1-2.738-2.733m.986 0c0 .974.787 1.763 1.752 1.763s1.754-.789 1.754-1.763c0-.978-.789-1.766-1.754-1.766s-1.752.788-1.752 1.766M112.73 120.222l-2.328-3.44v3.44h-.986v-5.245h.957l2.32 3.432v-3.432h.987v5.245zM117.365 117.186h2.307v.854h-2.307zM122.945 117.562a2.745 2.745 0 0 1 2.738-2.746 2.739 2.739 0 1 1 0 5.479 2.738 2.738 0 0 1-2.738-2.733m.987 0c0 .974.787 1.763 1.752 1.763s1.754-.789 1.754-1.763c0-.978-.789-1.766-1.754-1.766s-1.752.788-1.752 1.766M129.207 119.721a.577.577 0 0 1 .582-.573.574.574 0 0 1 0 1.147.576.576 0 0 1-.582-.574"></path>
</svg>